<svg width="64" height="64" viewBox="0 0 64 64" fill="none" xmlns="http://www.w3.org/2000/svg">
<rect width="64" height="64" rx="32" fill="#0060FE"/>
<rect x="0.5" y="0.5" width="63" height="63" rx="31.5" stroke="white" stroke-opacity="0.2"/>
<g clip-path="url(#clip0_431_1870)">
<path d="M38 34.9467V37.304C38.0001 37.4728 37.9361 37.6353 37.8211 37.7588C37.706 37.8823 37.5484 37.9575 37.38 37.9693C37.0887 37.9893 36.8507 38 36.6667 38C30.7753 38 26 33.2247 26 27.3333C26 27.1493 26.01 26.9113 26.0307 26.62C26.0425 26.4516 26.1177 26.294 26.2412 26.1789C26.3647 26.0639 26.5272 25.9999 26.696 26H29.0533C29.136 25.9999 29.2158 26.0306 29.2772 26.086C29.3385 26.1415 29.3771 26.2177 29.3853 26.3C29.4007 26.4533 29.4147 26.5753 29.428 26.668C29.5605 27.5926 29.832 28.4919 30.2333 29.3353C30.2967 29.4687 30.2553 29.628 30.1353 29.7133L28.6967 30.7413C29.5763 32.791 31.2097 34.4244 33.2593 35.304L34.286 33.868C34.328 33.8093 34.3892 33.7673 34.459 33.7491C34.5288 33.7309 34.6028 33.7379 34.668 33.7687C35.5113 34.1692 36.4104 34.4401 37.3347 34.572C37.4273 34.5853 37.5493 34.6 37.7013 34.6147C37.7835 34.6231 37.8596 34.6617 37.9149 34.7231C37.9702 34.7844 38.0008 34.8641 38.0007 34.9467H38Z" fill="white"/>
</g>
<defs>
<clipPath id="clip0_431_1870">
<rect width="16" height="16" fill="white" transform="translate(24 24)"/>
</clipPath>
</defs>
</svg>
